Format                           : MPEG-TS
File size                        : 2.35 GiB
Duration                         : 27mn 33s
Overall bit rate mode            : Variable
Overall bit rate                 : 12.2 Mbps

Video
ID                               : 1984 (0x7C0)
Menu ID                          : 1 (0x1)
Format                           : MPEG Video
Format version                   : Version 2
Format profile                   : Main@High
Format settings, BVOP            : Yes
Format settings, Matrix          : Custom
Codec ID                         : 2
Duration                         : 27mn 32s
Bit rate mode                    : Variable
Bit rate                         : 11.2 Mbps
Maximum bit rate                 : 20.0 Mbps
Width                            : 1 280 pixels
Height                           : 720 pixels
Display aspect ratio             : 16:9
Frame rate                       : 59.940 fps
Color space                      : YUV
Chroma subsampling               : 4:2:0
Bit depth                        : 8 bits
Scan type                        : Progressive
Compression mode                 : Lossy
Bits/(Pixel*Frame)               : 0.203
Stream size                      : 2.16 GiB (92%)

Audio
ID                               : 1985 (0x7C1)
Menu ID                          : 1 (0x1)
Format                           : AC-3
Format/Info                      : Audio Coding 3
Mode extension                   : CM (complete main)
Codec ID                         : 129
Duration                         : 27mn 32s
Bit rate mode                    : Constant
Bit rate                         : 384 Kbps
Channel(s)                       : 6 channels
Channel positions                : Front: L C R, Side: L R, LFE
Sampling rate                    : 48.0 KHz
Bit depth                        : 16 bits
Compression mode                 : Lossy
Stream size                      : 75.7 MiB (3%)
Language                         : English

Text #1
ID                               : 1984 (0x7C0)-608-1
Menu ID                          : 1 (0x1)
Format                           : EIA-608
Muxing mode                      : A/53 / DTVCC Transport
Muxing mode, more info           : Muxed in Video #1
Duration                         : 27mn 32s
Bit rate mode                    : Constant
Stream size                      : 0.00 Byte (0%)

Text #2
ID                               : 1984 (0x7C0)-1
Menu ID                          : 1 (0x1)
Format                           : EIA-708
Muxing mode                      : A/53 / DTVCC Transport
Muxing mode, more info           : Muxed in Video #1
Duration                         : 27mn 32s
Bit rate mode                    : Constant
Stream size                      : 0.00 Byte (0%)
